# xmcd CD database file
#
# Track frame offsets:
#	150
#	28626
#	52322
#	79130
#	107667
#	141379
#	168385
#	200071
#	231631
#
# Disc length: 3372 seconds
#
# Revision: 0
# Processed by: cddbd v1.5.2PL0 Copyright (c) Steve Scherf et al.
# Submitted via: CDex 1.77
#
DISCID=870d2a09
DTITLE=Mansuy/Leloil/Fenichel/Pasqua - Les Quatre Vents
DYEAR=2018
DGENRE=Jazz
TTITLE0=Time Eats us Alive
TTITLE1=Kin Hin
TTITLE2=Prima Luce
TTITLE3=Libeccio
TTITLE4=The BRight Suite
TTITLE5=First Light on Muskoka
TTITLE6=Blake
TTITLE7=Deval in Time
TTITLE8=West of the Moon
EXTD=YEAR: 2018
EXTT0=
EXTT1=
EXTT2=
EXTT3=
EXTT4=
EXTT5=
EXTT6=
EXTT7=
EXTT8=
PLAYORDER=
